<?xml version="1.0" standalone="no"?>
<!DOCTYPE svg PUBLIC "-//W3C//DTD SVG 20010904//EN"
 "http://www.w3.org/TR/2001/REC-SVG-20010904/DTD/svg10.dtd">
<svg version="1.0" xmlns="http://www.w3.org/2000/svg"
 width="544.000000pt" height="544.000000pt" viewBox="0 0 544.000000 544.000000"
 preserveAspectRatio="xMidYMid meet">
<metadata>
Created by potrace 1.14, written by Peter Selinger 2001-2017
</metadata>
<g transform="translate(0.000000,544.000000) scale(0.100000,-0.100000)"
fill="#000000" stroke="none">
<path d="M1775 5123 c-187 -45 -302 -143 -403 -342 -64 -126 -104 -241 -126
-366 -19 -106 -15 -372 8 -475 68 -308 208 -520 408 -614 108 -51 159 -61 293
-60 211 3 393 103 511 281 37 56 80 153 87 201 3 15 13 65 23 112 31 146 23
368 -20 555 -12 52 -70 200 -102 261 -130 245 -286 393 -460 438 -58 15 -174
20 -219 9z"/>
<path d="M3475 5123 c-158 -33 -296 -140 -416 -323 -79 -119 -163 -312 -184
-420 -23 -119 -28 -159 -30 -260 -2 -107 8 -204 35 -340 58 -297 301 -506 597
-515 306 -9 532 160 657 491 53 140 73 273 71 455 -1 90 -5 180 -9 199 -7 33
-22 96 -30 130 -12 45 -41 122 -67 178 -16 35 -29 65 -29 67 0 3 -14 28 -32
57 -111 185 -258 278 -448 283 -52 1 -104 1 -115 -2z"/>
<path d="M663 3570 c-87 -24 -128 -47 -189 -106 -98 -95 -141 -227 -142 -434
-1 -218 54 -399 176 -583 57 -87 151 -184 222 -231 201 -131 463 -109 629 53
122 119 164 227 156 406 -11 253 -118 491 -304 675 -191 189 -382 266 -548
220z"/>
<path d="M4620 3579 c-157 -25 -339 -150 -493 -341 -54 -66 -140 -241 -165
-334 -46 -173 -51 -330 -13 -434 79 -216 282 -352 502 -337 101 7 122 12 209
55 57 28 95 57 160 122 185 188 287 439 288 710 1 240 -57 391 -187 483 -86
62 -203 91 -301 76z"/>
<path d="M2570 2704 c-161 -24 -316 -94 -445 -199 -211 -172 -756 -904 -961
-1288 -51 -97 -80 -280 -59 -377 3 -14 8 -38 10 -53 9 -48 54 -149 87 -197 81
-118 191 -201 323 -246 67 -23 97 -28 185 -28 58 -1 121 2 140 6 96 19 194 68
286 142 103 83 268 164 374 183 14 2 43 8 65 13 41 9 269 6 320 -4 135 -29
284 -99 414 -196 152 -114 256 -150 417 -145 55 2 106 5 114 7 8 2 31 8 50 12
19 5 41 13 49 20 8 6 15 10 15 8 2 -8 62 22 115 57 165 113 272 311 272 506 0
187 -28 251 -275 631 -124 190 -207 306 -365 508 -270 346 -377 453 -543 540
-184 97 -382 131 -588 100z"/>
</g>
</svg>
